<svg width="152" height="152" viewBox="0 0 152 152" fill="none" xmlns="http://www.w3.org/2000/svg">
<path d="M19 114V76C19 60.8827 25.0053 46.3845 35.6949 35.6949C46.3845 25.0053 60.8827 19 76 19C91.1173 19 105.616 25.0053 116.305 35.6949C126.995 46.3845 133 60.8827 133 76V114" stroke="white" stroke-width="8.33333" stroke-linecap="round" stroke-linejoin="round"/>
<path d="M133 120.333C133 123.693 131.665 126.915 129.29 129.29C126.915 131.665 123.693 133 120.333 133H114C110.641 133 107.419 131.665 105.043 129.29C102.668 126.915 101.333 123.693 101.333 120.333V101.333C101.333 97.9739 102.668 94.7521 105.043 92.3766C107.419 90.0011 110.641 88.6666 114 88.6666H133V120.333ZM19 120.333C19 123.693 20.3345 126.915 22.71 129.29C25.0854 131.665 28.3073 133 31.6667 133H38C41.3594 133 44.5812 131.665 46.9567 129.29C49.3321 126.915 50.6667 123.693 50.6667 120.333V101.333C50.6667 97.9739 49.3321 94.7521 46.9567 92.3766C44.5812 90.0011 41.3594 88.6666 38 88.6666H19V120.333Z" stroke="white" stroke-width="8.33333" stroke-linecap="round" stroke-linejoin="round"/>
</svg>
