<svg width="152" height="152" viewBox="0 0 152 152" fill="none" xmlns="http://www.w3.org/2000/svg">
<path d="M76.0001 139.333C110.978 139.333 139.333 110.978 139.333 76C139.333 41.022 110.978 12.6667 76.0001 12.6667C41.022 12.6667 12.6667 41.022 12.6667 76C12.6667 110.978 41.022 139.333 76.0001 139.333Z" stroke="#CCE7E5" stroke-width="8.33333" stroke-linecap="round" stroke-linejoin="round"/>
<path d="M76 114C96.9868 114 114 96.9868 114 76C114 55.0132 96.9868 38 76 38C55.0132 38 38 55.0132 38 76C38 96.9868 55.0132 114 76 114Z" stroke="#CCE7E5" stroke-width="8.33333" stroke-linecap="round" stroke-linejoin="round"/>
<path d="M75.9999 88.6667C82.9955 88.6667 88.6666 82.9956 88.6666 76C88.6666 69.0044 82.9955 63.3333 75.9999 63.3333C69.0043 63.3333 63.3333 69.0044 63.3333 76C63.3333 82.9956 69.0043 88.6667 75.9999 88.6667Z" stroke="#CCE7E5" stroke-width="8.33333" stroke-linecap="round" stroke-linejoin="round"/>
</svg>
